PathFileType	4	(X/Y/Z)	T1_P2_NoVision_NoMovement_4_0-734.trc
DataRate	CameraRate	NumFrames	NumMarkers	Units	OrigDataRate	OrigDataStartFrame	OrigNumFrames
60	60	5	27	m	60	275	734
Frame#	Time	RHip			RKnee			RAnkle			RBigToe			RSmallToe			RHeel			LHip			LKnee			LAnkle			LBigToe			LSmallToe			LHeel			Neck			Head			Nose			RShoulder			RElbow			RWrist			RThumb			RIndex			RPinky			LShoulder			LElbow			LWrist			LThumb			LIndex			LPinky		
		X1	Y1	Z1	X2	Y2	Z2	X3	Y3	Z3	X4	Y4	Z4	X5	Y5	Z5	X6	Y6	Z6	X7	Y7	Z7	X8	Y8	Z8	X9	Y9	Z9	X10	Y10	Z10	X11	Y11	Z11	X12	Y12	Z12	X13	Y13	Z13	X14	Y14	Z14	X15	Y15	Z15	X16	Y16	Z16	X17	Y17	Z17	X18	Y18	Z18	X19	Y19	Z19	X20	Y20	Z20	X21	Y21	Z21	X22	Y22	Z22	X23	Y23	Z23	X24	Y24	Z24	X25	Y25	Z25	X26	Y26	Z26	X27	Y27	Z27
276	4.6	470.01125874556044	3683.974459906535	576.1905031876763	861.8708356820455	3680.358570515035	554.8611847393756	1237.993217282785	3746.409631410038	615.6835549998647	1306.7921383238993	3605.072265331071	559.171340886928	1303.825810173771	3670.8602729803347	519.2150631148073	1274.340009425192	3727.305761356519	624.390972847591	463.86676918291244	3507.0462474249744	733.9337318368971	855.5284115758369	3545.4572878103463	736.6434794592104	1220.4604705106728	3603.131793875422	726.3392737000784	1304.0724112766545	3523.5558393696133	685.099289541825	1264.014284006797	3439.4806802896765	703.1310303329757	1255.171596148223	3610.7478033674097	709.9859136238285	-115.27343440413043	3591.949694464718	708.7639109049294	-377.26756115042866	3491.361441515361	694.4550352449709	-224.3840747606653	3433.881591160353	629.4766620544109	-54.488228442811156	3647.958214182733	549.0730914261367	195.51053128778088	3760.0158166224737	517.2940535855686	355.59018624875495	3481.061841690124	500.5982866763843	419.94506269799325	3481.339821470659	582.3070349973382	441.8371157614333	3486.640852176437	606.3796429337375	475.6079725413665	3509.565474847196	607.0382988883166	-18.184835359091387	3530.2902676117847	854.5512671813119	223.77353356772227	3422.0304575188916	809.556677508119	380.607846256102	3432.3538238833758	624.1039913143001	413.78136058396854	3425.183569416921	502.443118132473	438.8576947977948	3458.785447828487	519.5698595618672	475.00274622448006	3452.5463744206563	591.9134867112689
277	4.616666666666666	465.3509939630334	3682.7916982802467	575.4922892055567	850.4731417098702	3674.109849929398	552.3269035398891	1219.2711943505806	3735.995956377659	612.3605171286168	1314.6136200164692	3626.7319723989403	565.0616357213096	1305.7080791088015	3689.7253494367733	524.4300538722312	1257.3414718100107	3706.7292836364027	621.1935180559764	467.19899954410147	3527.5427892137213	740.4727658927815	854.212863364024	3543.048727634898	736.6856531661854	1207.9911441468728	3594.965645824718	728.2822546698354	1304.0850665886712	3523.7457278319093	685.1656300015284	1278.2080665802455	3472.6273224088113	721.9091163907813	1246.130237188407	3612.465120049751	712.5371335345498	-115.24953433966185	3592.0553722119053	708.8258813215604	-378.15934658588066	3507.380880179486	708.5669280162558	-224.40460307363458	3434.188200846306	629.6264457221481	-54.575429571997994	3647.5253610560294	548.7924217993664	199.70839657977567	3755.3835066694082	515.114447220111	351.0843930319906	3479.0380684339543	499.58237145879536	424.26577004253164	3473.3570572984986	588.3208188935035	433.37987818239577	3465.948095956773	600.4115019469166	472.1356562977734	3490.3755784830023	601.4748563039716	-13.307679940240295	3531.5714803251276	855.1823653138333	223.63421325780212	3419.313716546368	813.3120214592781	375.86126021718735	3430.5811771608496	623.1707627078392	413.74851608075255	3424.8818680770883	502.53833809332195	438.56556456638145	3458.1486185712233	519.4301149655095	470.0237352961777	3448.6154001176415	590.6021177863184
278	4.633333333333334	465.369853435237	3682.6944603744873	575.4659990917011	850.4361380600004	3674.2153304033527	552.3364241555513	1231.5254362808264	3742.555763504556	615.0120691621255	1312.542830630191	3631.746876198774	567.9002595329043	1305.9159397837968	3690.0269219185393	524.7119529900663	1263.8776016218785	3710.970730622999	622.0926487360401	464.27239800601984	3507.385096726236	734.2451376523218	854.4291360464364	3542.985618300866	736.6951284316838	1213.4562925136106	3596.311268001248	729.6735241816193	1304.1831358449451	3523.916427444333	685.2319434015968	1270.895519193056	3453.1428626411002	715.6906738927561	1252.3619585981808	3616.0320520037108	713.1432542087053	-115.15063905516698	3591.8568113558763	708.601098134709	-377.2498627006529	3492.2129074336367	694.7694615264306	-224.39289620659395	3434.0476969924343	629.5517021289259	-54.39163826825953	3647.8964624216333	548.8938587018237	199.77779983921994	3755.4030731465214	515.0892724366312	351.00406225137976	3479.0869045012564	499.55927227269206	423.6335723470158	3475.78310004977	579.5995804667702	435.9425050170925	3484.2405972588003	605.0720436296252	467.0223286897321	3488.1665403197667	600.349663302386	-13.279726551182351	3531.580656627977	855.1924542465155	223.63752945584756	3421.8872983808164	809.5916123740371	375.82339584558144	3430.5086518923436	623.2241725819157	413.7067212010944	3424.7325807230295	502.6808747914034	435.3713890646974	3461.8096354582003	521.5329360981708	469.6092487927341	3448.1165348650234	590.3388706255721
279	4.65	464.3566703002916	3680.087588044282	574.9500647136165	854.164494348729	3675.515424135101	553.3109640152571	1231.3966817579044	3742.3032667933976	614.8493279708435	1313.100129815118	3625.86213889357	558.9756126939351	1299.647085767213	3687.1451735837923	522.1010402910981	1263.9001216683334	3711.0691283797296	622.0156296258235	464.1867577425663	3507.5919646283533	734.1740347806696	854.3217834187491	3542.8614344710977	736.6127229028756	1214.735308832865	3601.7074909314633	724.8380814451864	1304.7033125907578	3527.155482234885	681.3048810023752	1266.3403805139264	3457.157711951287	707.5981265865939	1249.736826613469	3612.4594736289373	704.918610337754	-115.70279860608996	3577.0095976328575	695.5789131572192	-377.2945862848755	3492.2613662625495	694.8434471565199	-228.94981755231842	3432.7931493117085	629.0523394866924	-54.45753427711324	3647.682440594232	548.9124151013407	195.50010324532204	3760.0963716177102	517.2610258467398	351.01113612086516	3478.777132484291	499.4190185201225	416.7373041208132	3461.138605596049	576.942186668606	433.095619451049	3465.028465508366	600.0864989875332	466.9605042567345	3488.1471011948756	600.4584207071649	-13.2666036700899	3534.851385697256	851.9645938271254	223.70419208715444	3421.894783121752	809.5522967125358	370.7986042550066	3426.410447083643	621.8664971032174	395.09536554122104	3320.6516258582333	483.66261166667374	432.549258151109	3439.8967445831613	521.064756116472	466.3298886432991	3428.818997612818	585.3641795769844
280	4.666666666666667	460.69860947124135	3662.733374611016	561.2402339181199	854.5387685719529	3675.673147372617	553.5279474572088	1231.6596277627239	3742.4419877274645	614.9408115524369	1322.120404983876	3641.847079348909	577.9198901062207	1307.0070134553448	3692.2206953787713	523.5984741800256	1264.176508080103	3711.132913771373	622.0169488032739	460.1232699360344	3512.0925207071673	736.6494745359629	854.2290573099391	3542.823140521246	736.5876856456808	1208.1149565905343	3597.377389487415	723.7530794826368	1304.2044306087948	3523.905912578462	685.3186214255226	1273.2575667851193	3470.9532338501785	720.2754312807839	1255.3201687805802	3614.087732610741	706.2495733053763	-115.24925343444757	3591.9097548904842	708.6508997183663	-377.35115801143877	3492.616833678804	694.9752472908073	-224.4129966092778	3433.956518114227	629.6057457562742	-54.457123559281555	3647.3690344658557	548.7959853794114	199.71490050418475	3755.109176128107	514.9130975803482	355.59711206959383	3480.7371198378887	500.5474750951897	420.57399354856136	3478.4111815639003	591.0851142310458	435.0815360603197	3472.6396480472827	604.0816870459719	468.0431154893445	3495.4514745913666	604.3726557874965	-13.250322896486416	3534.7499471784845	851.9217926443225	223.80658743839865	3421.8739815690437	809.4953109281261	375.43739744759694	3425.117355464732	626.9740995079553	410.31903563818446	3424.095293706426	506.9603144644383	432.8440506412622	3441.1686496689595	521.4296626974651	466.58450539996386	3429.1572553564865	585.4955192933654
